# xmcd
#
# Track frame offsets:
#	150
#	11944
#	23471
#	35829
#	47941
#	62066
#	74457
#	84681
#	97977
#	111490
#	124474
#	137619
#	149031
#	161682
#	175436
#	188710
#	204973
#	218528
#	229239
#	242210
#	254184
#	266812
#	276815
#	288458
#	302367
#
# Disc length: 4175 seconds
#
# Revision: 1
# Processed by: cddbd v1.5.2PL0 Copyright (c) Steve Scherf et al.
# Submitted via: audiograbber 1.83.01
#
DISCID=8a104d19
DTITLE=Bull Moose Jackson - Big Ten-Inch Record
DYEAR=1950
DGENRE=Jump Blues
TTITLE0=We Ain't Got Nothin' (But the Blues)
TTITLE1=Bull Moose Jackson Blues
TTITLE2=The Honeydripper
TTITLE3=Shorty's Got To Go
TTITLE4=Bad Man Jackson, That's Me
TTITLE5=I Know Who Threw The Whiskey in the Well
TTITLE6=Oo-Oo-Ee-Bob-a-Lee-Bob
TTITLE7=Jammin' and Jumpin'
TTITLE8=I Love You, Yes I Do
TTITLE9=Sneaky Pete
TTITLE10=Houston Texas Girl
TTITLE11=Oh John
TTITLE12=We Can Talk Some Trash
TTITLE13=I Want A Bow-Legged Woman
TTITLE14=Fare Thee Well, Deacon Jones, Fare Thee Well
TTITLE15=Moosey
TTITLE16=Why Don't You Haul Off and Love Me
TTITLE17=Big Fat Mamas are Back In Style Again
TTITLE18=Cherokee Boogie
TTITLE19=Nosey Joe
TTITLE20=Bearcat Blues
TTITLE21=Big Ten-Inch Record
TTITLE22=Meet Me With Your Black Dress On
TTITLE23=I Want to Hug Ya, Kiss Ya, Squeeze Ya
TTITLE24=If You Ain't Lovin' (You Ain't Livin')
EXTD=Collectibles Record Label
EXTT0=
EXTT1=
EXTT2=
EXTT3=
EXTT4=
EXTT5=
EXTT6=
EXTT7=
EXTT8=
EXTT9=
EXTT10=
EXTT11=
EXTT12=
EXTT13=
EXTT14=
EXTT15=
EXTT16=
EXTT17=
EXTT18=
EXTT19=
EXTT20=
EXTT21=
EXTT22=
EXTT23=
EXTT24=
PLAYORDER=
